<?xml version="1.0" standalone="no"?>
<!DOCTYPE svg PUBLIC "-//W3C//DTD SVG 20010904//EN"
 "http://www.w3.org/TR/2001/REC-SVG-20010904/DTD/svg10.dtd">
<svg version="1.0" xmlns="http://www.w3.org/2000/svg"
 width="256.000000pt" height="256.000000pt" viewBox="0 0 256.000000 256.000000"
 preserveAspectRatio="xMidYMid meet">
<metadata>
Created by potrace 1.14, written by Peter Selinger 2001-2017
</metadata>
<g transform="translate(0.000000,256.000000) scale(0.100000,-0.100000)"
fill="#000000" stroke="none">
<path d="M107 2449 l-108 -109 19 -28 c11 -15 31 -39 45 -54 14 -15 27 -30 28
-35 8 -16 183 -233 189 -233 3 0 26 20 50 44 l45 45 357 -357 c197 -196 358
-361 358 -365 0 -5 -93 -102 -207 -216 l-208 -207 -60 17 c-80 24 -219 20
-293 -9 -237 -92 -363 -325 -307 -569 49 -217 245 -371 470 -371 118 0 242 45
321 117 34 31 114 133 114 145 0 5 6 22 14 39 8 18 19 49 25 71 13 52 7 211
-10 261 l-14 40 208 207 c114 115 211 208 215 208 4 0 71 -64 149 -143 l143
-143 -65 -64 -64 -64 312 -312 c204 -205 327 -321 356 -336 35 -18 61 -23 120
-23 66 0 82 4 121 29 60 38 77 57 105 118 31 67 30 153 -3 218 -15 30 -127
149 -335 357 l-313 311 -63 -65 -64 -65 -144 144 c-78 78 -143 146 -143 151 0
4 104 111 231 238 l231 232 57 -13 c139 -32 280 -4 391 79 19 14 40 33 46 41
7 8 23 27 37 42 25 27 73 120 84 162 13 50 11 193 -4 240 l-14 48 -115 -113
c-66 -66 -122 -113 -132 -112 -9 1 -55 12 -103 24 l-86 22 -23 86 c-12 47 -25
93 -27 102 -3 10 37 57 111 131 l115 116 -32 12 c-52 19 -169 24 -228 10 -140
-33 -253 -121 -312 -242 -52 -107 -65 -235 -34 -327 l15 -43 -233 -234 c-128
-129 -237 -234 -241 -234 -5 0 -170 161 -366 357 l-358 358 48 48 47 48 -25
19 c-14 10 -35 26 -46 37 -44 37 -276 218 -282 219 -4 1 -56 -47 -115 -107z
m477 -1811 c91 -60 108 -196 33 -276 -65 -70 -174 -76 -247 -15 -101 84 -81
245 36 303 52 25 130 20 178 -12z"/>
</g>
</svg>
